<mxfile host="app.diagrams.net" agent="Mozilla/5.0 (X11; Ubuntu; Linux x86_64; rv:129.0) Gecko/20100101 Firefox/129.0" version="24.7.7">
  <diagram name="Page-1" id="Tpg1ybQx6uf1ZVtLEQtn">
    <mxGraphModel dx="941" dy="548" grid="1" gridSize="10" guides="1" tooltips="1" connect="1" arrows="1" fold="1" page="1" pageScale="1" pageWidth="827" pageHeight="1169" math="1" shadow="0">
      <root>
        <mxCell id="0" />
        <mxCell id="1" parent="0" />
        <mxCell id="bP2TtNnTVyMu0gTxCtmb-1" value="\(v_1\)" style="ellipse;whiteSpace=wrap;html=1;aspect=fixed;fillColor=#f8cecc;strokeColor=#b85450;" vertex="1" parent="1">
          <mxGeometry x="130" y="240" width="30" height="30" as="geometry" />
        </mxCell>
        <mxCell id="bP2TtNnTVyMu0gTxCtmb-2" value="\(v_2\)" style="ellipse;whiteSpace=wrap;html=1;aspect=fixed;fillColor=#f8cecc;strokeColor=#b85450;" vertex="1" parent="1">
          <mxGeometry x="190" y="270" width="30" height="30" as="geometry" />
        </mxCell>
        <mxCell id="bP2TtNnTVyMu0gTxCtmb-6" value="\(v_4\)" style="ellipse;whiteSpace=wrap;html=1;aspect=fixed;fillColor=#f8cecc;strokeColor=#b85450;" vertex="1" parent="1">
          <mxGeometry x="310" y="240" width="30" height="30" as="geometry" />
        </mxCell>
        <mxCell id="bP2TtNnTVyMu0gTxCtmb-7" value="\(v_3\)" style="ellipse;whiteSpace=wrap;html=1;aspect=fixed;fillColor=#f8cecc;strokeColor=#b85450;" vertex="1" parent="1">
          <mxGeometry x="260" y="270" width="30" height="30" as="geometry" />
        </mxCell>
        <mxCell id="bP2TtNnTVyMu0gTxCtmb-8" value="\(v_5\)" style="ellipse;whiteSpace=wrap;html=1;aspect=fixed;" vertex="1" parent="1">
          <mxGeometry x="240" y="150" width="30" height="30" as="geometry" />
        </mxCell>
        <mxCell id="bP2TtNnTVyMu0gTxCtmb-9" value="\(v_8\)" style="ellipse;whiteSpace=wrap;html=1;aspect=fixed;" vertex="1" parent="1">
          <mxGeometry x="150" y="310" width="30" height="30" as="geometry" />
        </mxCell>
        <mxCell id="bP2TtNnTVyMu0gTxCtmb-10" value="\(v_7\)" style="ellipse;whiteSpace=wrap;html=1;aspect=fixed;" vertex="1" parent="1">
          <mxGeometry x="240" y="230" width="30" height="30" as="geometry" />
        </mxCell>
        <mxCell id="bP2TtNnTVyMu0gTxCtmb-11" value="\(v_6\)" style="ellipse;whiteSpace=wrap;html=1;aspect=fixed;" vertex="1" parent="1">
          <mxGeometry x="240" y="190" width="30" height="30" as="geometry" />
        </mxCell>
        <mxCell id="bP2TtNnTVyMu0gTxCtmb-14" value="" style="endArrow=classic;html=1;rounded=0;" edge="1" parent="1" source="bP2TtNnTVyMu0gTxCtmb-1" target="bP2TtNnTVyMu0gTxCtmb-2">
          <mxGeometry width="50" height="50" relative="1" as="geometry">
            <mxPoint x="390" y="440" as="sourcePoint" />
            <mxPoint x="440" y="390" as="targetPoint" />
          </mxGeometry>
        </mxCell>
        <mxCell id="bP2TtNnTVyMu0gTxCtmb-15" value="" style="endArrow=classic;html=1;rounded=0;" edge="1" parent="1" source="bP2TtNnTVyMu0gTxCtmb-2" target="bP2TtNnTVyMu0gTxCtmb-7">
          <mxGeometry width="50" height="50" relative="1" as="geometry">
            <mxPoint x="390" y="440" as="sourcePoint" />
            <mxPoint x="440" y="390" as="targetPoint" />
          </mxGeometry>
        </mxCell>
        <mxCell id="bP2TtNnTVyMu0gTxCtmb-16" value="" style="endArrow=classic;html=1;rounded=0;" edge="1" parent="1" source="bP2TtNnTVyMu0gTxCtmb-7" target="bP2TtNnTVyMu0gTxCtmb-6">
          <mxGeometry width="50" height="50" relative="1" as="geometry">
            <mxPoint x="390" y="440" as="sourcePoint" />
            <mxPoint x="440" y="390" as="targetPoint" />
          </mxGeometry>
        </mxCell>
        <mxCell id="bP2TtNnTVyMu0gTxCtmb-17" value="" style="endArrow=classic;html=1;rounded=0;" edge="1" parent="1" source="bP2TtNnTVyMu0gTxCtmb-1" target="bP2TtNnTVyMu0gTxCtmb-8">
          <mxGeometry width="50" height="50" relative="1" as="geometry">
            <mxPoint x="360" y="370" as="sourcePoint" />
            <mxPoint x="410" y="320" as="targetPoint" />
          </mxGeometry>
        </mxCell>
        <mxCell id="bP2TtNnTVyMu0gTxCtmb-18" value="" style="endArrow=classic;html=1;rounded=0;" edge="1" parent="1" source="bP2TtNnTVyMu0gTxCtmb-1" target="bP2TtNnTVyMu0gTxCtmb-11">
          <mxGeometry width="50" height="50" relative="1" as="geometry">
            <mxPoint x="360" y="370" as="sourcePoint" />
            <mxPoint x="410" y="320" as="targetPoint" />
          </mxGeometry>
        </mxCell>
        <mxCell id="bP2TtNnTVyMu0gTxCtmb-19" value="" style="endArrow=classic;html=1;rounded=0;" edge="1" parent="1" source="bP2TtNnTVyMu0gTxCtmb-1" target="bP2TtNnTVyMu0gTxCtmb-10">
          <mxGeometry width="50" height="50" relative="1" as="geometry">
            <mxPoint x="380" y="340" as="sourcePoint" />
            <mxPoint x="430" y="290" as="targetPoint" />
          </mxGeometry>
        </mxCell>
        <mxCell id="bP2TtNnTVyMu0gTxCtmb-20" value="" style="endArrow=classic;html=1;rounded=0;" edge="1" parent="1" source="bP2TtNnTVyMu0gTxCtmb-1" target="bP2TtNnTVyMu0gTxCtmb-9">
          <mxGeometry width="50" height="50" relative="1" as="geometry">
            <mxPoint x="380" y="340" as="sourcePoint" />
            <mxPoint x="430" y="290" as="targetPoint" />
          </mxGeometry>
        </mxCell>
        <mxCell id="bP2TtNnTVyMu0gTxCtmb-21" value="" style="endArrow=classic;html=1;rounded=0;" edge="1" parent="1" source="bP2TtNnTVyMu0gTxCtmb-9" target="bP2TtNnTVyMu0gTxCtmb-7">
          <mxGeometry width="50" height="50" relative="1" as="geometry">
            <mxPoint x="460" y="330" as="sourcePoint" />
            <mxPoint x="510" y="280" as="targetPoint" />
          </mxGeometry>
        </mxCell>
        <mxCell id="bP2TtNnTVyMu0gTxCtmb-22" value="" style="endArrow=classic;html=1;rounded=0;" edge="1" parent="1" source="bP2TtNnTVyMu0gTxCtmb-8" target="bP2TtNnTVyMu0gTxCtmb-6">
          <mxGeometry width="50" height="50" relative="1" as="geometry">
            <mxPoint x="460" y="330" as="sourcePoint" />
            <mxPoint x="510" y="280" as="targetPoint" />
          </mxGeometry>
        </mxCell>
        <mxCell id="bP2TtNnTVyMu0gTxCtmb-23" value="" style="endArrow=classic;html=1;rounded=0;" edge="1" parent="1" source="bP2TtNnTVyMu0gTxCtmb-10" target="bP2TtNnTVyMu0gTxCtmb-6">
          <mxGeometry width="50" height="50" relative="1" as="geometry">
            <mxPoint x="460" y="330" as="sourcePoint" />
            <mxPoint x="510" y="280" as="targetPoint" />
          </mxGeometry>
        </mxCell>
        <mxCell id="bP2TtNnTVyMu0gTxCtmb-24" value="" style="endArrow=classic;html=1;rounded=0;" edge="1" parent="1" source="bP2TtNnTVyMu0gTxCtmb-11" target="bP2TtNnTVyMu0gTxCtmb-6">
          <mxGeometry width="50" height="50" relative="1" as="geometry">
            <mxPoint x="350" y="390" as="sourcePoint" />
            <mxPoint x="400" y="340" as="targetPoint" />
          </mxGeometry>
        </mxCell>
        <mxCell id="bP2TtNnTVyMu0gTxCtmb-28" value="1" style="text;html=1;align=center;verticalAlign=middle;resizable=0;points=[];autosize=1;strokeColor=none;fillColor=none;" vertex="1" parent="1">
          <mxGeometry x="140" y="220" width="30" height="30" as="geometry" />
        </mxCell>
        <mxCell id="bP2TtNnTVyMu0gTxCtmb-29" value="7" style="text;html=1;align=center;verticalAlign=middle;resizable=0;points=[];autosize=1;strokeColor=none;fillColor=none;" vertex="1" parent="1">
          <mxGeometry x="260" y="140" width="30" height="30" as="geometry" />
        </mxCell>
        <mxCell id="bP2TtNnTVyMu0gTxCtmb-30" value="3" style="text;html=1;align=center;verticalAlign=middle;resizable=0;points=[];autosize=1;strokeColor=none;fillColor=none;" vertex="1" parent="1">
          <mxGeometry x="260" y="190" width="30" height="30" as="geometry" />
        </mxCell>
        <mxCell id="bP2TtNnTVyMu0gTxCtmb-33" value="3" style="text;html=1;align=center;verticalAlign=middle;resizable=0;points=[];autosize=1;strokeColor=none;fillColor=none;" vertex="1" parent="1">
          <mxGeometry x="260" y="220" width="30" height="30" as="geometry" />
        </mxCell>
        <mxCell id="bP2TtNnTVyMu0gTxCtmb-34" value="6" style="text;html=1;align=center;verticalAlign=middle;resizable=0;points=[];autosize=1;strokeColor=none;fillColor=none;" vertex="1" parent="1">
          <mxGeometry x="210" y="260" width="30" height="30" as="geometry" />
        </mxCell>
        <mxCell id="bP2TtNnTVyMu0gTxCtmb-35" value="2" style="text;html=1;align=center;verticalAlign=middle;resizable=0;points=[];autosize=1;strokeColor=none;fillColor=none;" vertex="1" parent="1">
          <mxGeometry x="270" y="250" width="30" height="30" as="geometry" />
        </mxCell>
        <mxCell id="bP2TtNnTVyMu0gTxCtmb-36" value="1" style="text;html=1;align=center;verticalAlign=middle;resizable=0;points=[];autosize=1;strokeColor=none;fillColor=none;" vertex="1" parent="1">
          <mxGeometry x="330" y="230" width="30" height="30" as="geometry" />
        </mxCell>
        <mxCell id="bP2TtNnTVyMu0gTxCtmb-37" value="1" style="text;html=1;align=center;verticalAlign=middle;resizable=0;points=[];autosize=1;strokeColor=none;fillColor=none;" vertex="1" parent="1">
          <mxGeometry x="160" y="290" width="30" height="30" as="geometry" />
        </mxCell>
        <mxCell id="bP2TtNnTVyMu0gTxCtmb-40" value="" style="endArrow=none;html=1;rounded=0;" edge="1" parent="1">
          <mxGeometry width="50" height="50" relative="1" as="geometry">
            <mxPoint x="370" y="340" as="sourcePoint" />
            <mxPoint x="370" y="140" as="targetPoint" />
          </mxGeometry>
        </mxCell>
        <mxCell id="bP2TtNnTVyMu0gTxCtmb-41" value="" style="endArrow=none;html=1;rounded=0;" edge="1" parent="1">
          <mxGeometry width="50" height="50" relative="1" as="geometry">
            <mxPoint x="405" y="181" as="sourcePoint" />
            <mxPoint x="725" y="181" as="targetPoint" />
          </mxGeometry>
        </mxCell>
        <mxCell id="bP2TtNnTVyMu0gTxCtmb-42" value="" style="endArrow=none;html=1;rounded=0;" edge="1" parent="1">
          <mxGeometry width="50" height="50" relative="1" as="geometry">
            <mxPoint x="405" y="181" as="sourcePoint" />
            <mxPoint x="405" y="131" as="targetPoint" />
          </mxGeometry>
        </mxCell>
        <mxCell id="bP2TtNnTVyMu0gTxCtmb-43" value="&lt;font style=&quot;font-size: 10px;&quot;&gt;\(v_1\)&lt;/font&gt;" style="rounded=0;whiteSpace=wrap;html=1;" vertex="1" parent="1">
          <mxGeometry x="405" y="161" width="20" height="20" as="geometry" />
        </mxCell>
        <mxCell id="bP2TtNnTVyMu0gTxCtmb-44" value="" style="endArrow=classic;html=1;rounded=0;" edge="1" parent="1">
          <mxGeometry width="50" height="50" relative="1" as="geometry">
            <mxPoint x="725" y="181" as="sourcePoint" />
            <mxPoint x="775" y="181" as="targetPoint" />
          </mxGeometry>
        </mxCell>
        <mxCell id="bP2TtNnTVyMu0gTxCtmb-45" value="time" style="text;html=1;align=center;verticalAlign=middle;resizable=0;points=[];autosize=1;strokeColor=none;fillColor=none;" vertex="1" parent="1">
          <mxGeometry x="755" y="186" width="50" height="30" as="geometry" />
        </mxCell>
        <mxCell id="bP2TtNnTVyMu0gTxCtmb-46" value="0" style="text;html=1;align=center;verticalAlign=middle;resizable=0;points=[];autosize=1;strokeColor=none;fillColor=none;" vertex="1" parent="1">
          <mxGeometry x="390" y="179" width="30" height="30" as="geometry" />
        </mxCell>
        <mxCell id="bP2TtNnTVyMu0gTxCtmb-61" value="1" style="text;html=1;align=center;verticalAlign=middle;resizable=0;points=[];autosize=1;strokeColor=none;fillColor=none;" vertex="1" parent="1">
          <mxGeometry x="380" y="156" width="30" height="30" as="geometry" />
        </mxCell>
        <mxCell id="bP2TtNnTVyMu0gTxCtmb-62" value="2" style="text;html=1;align=center;verticalAlign=middle;resizable=0;points=[];autosize=1;strokeColor=none;fillColor=none;" vertex="1" parent="1">
          <mxGeometry x="380" y="136" width="30" height="30" as="geometry" />
        </mxCell>
        <mxCell id="bP2TtNnTVyMu0gTxCtmb-63" value="" style="endArrow=classic;html=1;rounded=0;" edge="1" parent="1">
          <mxGeometry width="50" height="50" relative="1" as="geometry">
            <mxPoint x="405" y="131" as="sourcePoint" />
            <mxPoint x="405" y="121" as="targetPoint" />
          </mxGeometry>
        </mxCell>
        <mxCell id="bP2TtNnTVyMu0gTxCtmb-64" value="procs" style="text;html=1;align=center;verticalAlign=middle;resizable=0;points=[];autosize=1;strokeColor=none;fillColor=none;" vertex="1" parent="1">
          <mxGeometry x="380" y="99" width="50" height="30" as="geometry" />
        </mxCell>
        <mxCell id="bP2TtNnTVyMu0gTxCtmb-66" value="&lt;font style=&quot;font-size: 10px;&quot;&gt;\(v_4\)&lt;/font&gt;" style="rounded=0;whiteSpace=wrap;html=1;" vertex="1" parent="1">
          <mxGeometry x="725" y="161" width="20" height="20" as="geometry" />
        </mxCell>
        <mxCell id="bP2TtNnTVyMu0gTxCtmb-67" value="&lt;font style=&quot;font-size: 10px;&quot;&gt;\(v_8\)&lt;/font&gt;" style="rounded=0;whiteSpace=wrap;html=1;" vertex="1" parent="1">
          <mxGeometry x="545" y="141" width="20" height="20" as="geometry" />
        </mxCell>
        <mxCell id="bP2TtNnTVyMu0gTxCtmb-68" value="&lt;font style=&quot;font-size: 10px;&quot;&gt;\(v_7\)&lt;/font&gt;" style="rounded=0;whiteSpace=wrap;html=1;" vertex="1" parent="1">
          <mxGeometry x="485" y="141" width="60" height="20" as="geometry" />
        </mxCell>
        <mxCell id="bP2TtNnTVyMu0gTxCtmb-69" value="&lt;font style=&quot;font-size: 10px;&quot;&gt;\(v_3\)&lt;/font&gt;" style="rounded=0;whiteSpace=wrap;html=1;" vertex="1" parent="1">
          <mxGeometry x="685" y="161" width="40" height="20" as="geometry" />
        </mxCell>
        <mxCell id="bP2TtNnTVyMu0gTxCtmb-70" value="&lt;font style=&quot;font-size: 10px;&quot;&gt;\(v_6\)&lt;/font&gt;" style="rounded=0;whiteSpace=wrap;html=1;" vertex="1" parent="1">
          <mxGeometry x="425" y="141" width="60" height="20" as="geometry" />
        </mxCell>
        <mxCell id="bP2TtNnTVyMu0gTxCtmb-71" value="&lt;font style=&quot;font-size: 10px;&quot;&gt;\(v_2\)&lt;/font&gt;" style="rounded=0;whiteSpace=wrap;html=1;" vertex="1" parent="1">
          <mxGeometry x="565" y="161" width="120" height="20" as="geometry" />
        </mxCell>
        <mxCell id="bP2TtNnTVyMu0gTxCtmb-72" value="&lt;font style=&quot;font-size: 10px;&quot;&gt;\(v_5\)&lt;/font&gt;" style="rounded=0;whiteSpace=wrap;html=1;" vertex="1" parent="1">
          <mxGeometry x="425" y="161" width="140" height="20" as="geometry" />
        </mxCell>
        <mxCell id="bP2TtNnTVyMu0gTxCtmb-74" value="17" style="text;html=1;align=center;verticalAlign=middle;resizable=0;points=[];autosize=1;strokeColor=none;fillColor=none;" vertex="1" parent="1">
          <mxGeometry x="725" y="184" width="40" height="30" as="geometry" />
        </mxCell>
        <mxCell id="bP2TtNnTVyMu0gTxCtmb-75" value="" style="endArrow=none;html=1;rounded=0;" edge="1" parent="1">
          <mxGeometry width="50" height="50" relative="1" as="geometry">
            <mxPoint x="405" y="239" as="sourcePoint" />
            <mxPoint x="725" y="239" as="targetPoint" />
          </mxGeometry>
        </mxCell>
        <mxCell id="bP2TtNnTVyMu0gTxCtmb-77" value="&lt;font style=&quot;font-size: 10px;&quot;&gt;\(v_1\)&lt;/font&gt;" style="rounded=0;whiteSpace=wrap;html=1;" vertex="1" parent="1">
          <mxGeometry x="405" y="219" width="20" height="20" as="geometry" />
        </mxCell>
        <mxCell id="bP2TtNnTVyMu0gTxCtmb-78" value="" style="endArrow=classic;html=1;rounded=0;" edge="1" parent="1">
          <mxGeometry width="50" height="50" relative="1" as="geometry">
            <mxPoint x="725" y="239" as="sourcePoint" />
            <mxPoint x="775" y="239" as="targetPoint" />
          </mxGeometry>
        </mxCell>
        <mxCell id="bP2TtNnTVyMu0gTxCtmb-79" value="time" style="text;html=1;align=center;verticalAlign=middle;resizable=0;points=[];autosize=1;strokeColor=none;fillColor=none;" vertex="1" parent="1">
          <mxGeometry x="755" y="244" width="50" height="30" as="geometry" />
        </mxCell>
        <mxCell id="bP2TtNnTVyMu0gTxCtmb-80" value="0" style="text;html=1;align=center;verticalAlign=middle;resizable=0;points=[];autosize=1;strokeColor=none;fillColor=none;" vertex="1" parent="1">
          <mxGeometry x="390" y="237" width="30" height="30" as="geometry" />
        </mxCell>
        <mxCell id="bP2TtNnTVyMu0gTxCtmb-82" value="&lt;font style=&quot;font-size: 10px;&quot;&gt;\(v_4\)&lt;/font&gt;" style="rounded=0;whiteSpace=wrap;html=1;" vertex="1" parent="1">
          <mxGeometry x="705" y="219" width="20" height="20" as="geometry" />
        </mxCell>
        <mxCell id="bP2TtNnTVyMu0gTxCtmb-83" value="&lt;font style=&quot;font-size: 10px;&quot;&gt;\(v_8\)&lt;/font&gt;" style="rounded=0;whiteSpace=wrap;html=1;" vertex="1" parent="1">
          <mxGeometry x="425" y="219" width="20" height="20" as="geometry" />
        </mxCell>
        <mxCell id="bP2TtNnTVyMu0gTxCtmb-84" value="&lt;font style=&quot;font-size: 10px;&quot;&gt;\(v_7\)&lt;/font&gt;" style="rounded=0;whiteSpace=wrap;html=1;" vertex="1" parent="1">
          <mxGeometry x="505" y="219" width="60" height="20" as="geometry" />
        </mxCell>
        <mxCell id="bP2TtNnTVyMu0gTxCtmb-85" value="&lt;font style=&quot;font-size: 10px;&quot;&gt;\(v_3\)&lt;/font&gt;" style="rounded=0;whiteSpace=wrap;html=1;" vertex="1" parent="1">
          <mxGeometry x="545" y="199" width="40" height="20" as="geometry" />
        </mxCell>
        <mxCell id="bP2TtNnTVyMu0gTxCtmb-86" value="&lt;font style=&quot;font-size: 10px;&quot;&gt;\(v_6\)&lt;/font&gt;" style="rounded=0;whiteSpace=wrap;html=1;" vertex="1" parent="1">
          <mxGeometry x="445" y="219" width="60" height="20" as="geometry" />
        </mxCell>
        <mxCell id="bP2TtNnTVyMu0gTxCtmb-87" value="&lt;font style=&quot;font-size: 10px;&quot;&gt;\(v_2\)&lt;/font&gt;" style="rounded=0;whiteSpace=wrap;html=1;" vertex="1" parent="1">
          <mxGeometry x="425" y="199" width="120" height="20" as="geometry" />
        </mxCell>
        <mxCell id="bP2TtNnTVyMu0gTxCtmb-88" value="&lt;font style=&quot;font-size: 10px;&quot;&gt;\(v_5\)&lt;/font&gt;" style="rounded=0;whiteSpace=wrap;html=1;" vertex="1" parent="1">
          <mxGeometry x="565" y="219" width="140" height="20" as="geometry" />
        </mxCell>
        <mxCell id="bP2TtNnTVyMu0gTxCtmb-89" value="16" style="text;html=1;align=center;verticalAlign=middle;resizable=0;points=[];autosize=1;strokeColor=none;fillColor=none;" vertex="1" parent="1">
          <mxGeometry x="705" y="244" width="40" height="30" as="geometry" />
        </mxCell>
        <mxCell id="bP2TtNnTVyMu0gTxCtmb-90" value="" style="endArrow=none;html=1;rounded=0;" edge="1" parent="1">
          <mxGeometry width="50" height="50" relative="1" as="geometry">
            <mxPoint x="405" y="296" as="sourcePoint" />
            <mxPoint x="725" y="296" as="targetPoint" />
          </mxGeometry>
        </mxCell>
        <mxCell id="bP2TtNnTVyMu0gTxCtmb-91" value="&lt;font style=&quot;font-size: 10px;&quot;&gt;\(v_1\)&lt;/font&gt;" style="rounded=0;whiteSpace=wrap;html=1;" vertex="1" parent="1">
          <mxGeometry x="405" y="276" width="20" height="20" as="geometry" />
        </mxCell>
        <mxCell id="bP2TtNnTVyMu0gTxCtmb-92" value="" style="endArrow=classic;html=1;rounded=0;" edge="1" parent="1">
          <mxGeometry width="50" height="50" relative="1" as="geometry">
            <mxPoint x="725" y="296" as="sourcePoint" />
            <mxPoint x="775" y="296" as="targetPoint" />
          </mxGeometry>
        </mxCell>
        <mxCell id="bP2TtNnTVyMu0gTxCtmb-93" value="time" style="text;html=1;align=center;verticalAlign=middle;resizable=0;points=[];autosize=1;strokeColor=none;fillColor=none;" vertex="1" parent="1">
          <mxGeometry x="755" y="301" width="50" height="30" as="geometry" />
        </mxCell>
        <mxCell id="bP2TtNnTVyMu0gTxCtmb-94" value="0" style="text;html=1;align=center;verticalAlign=middle;resizable=0;points=[];autosize=1;strokeColor=none;fillColor=none;" vertex="1" parent="1">
          <mxGeometry x="390" y="294" width="30" height="30" as="geometry" />
        </mxCell>
        <mxCell id="bP2TtNnTVyMu0gTxCtmb-95" value="&lt;font style=&quot;font-size: 10px;&quot;&gt;\(v_4\)&lt;/font&gt;" style="rounded=0;whiteSpace=wrap;html=1;" vertex="1" parent="1">
          <mxGeometry x="665" y="276" width="20" height="20" as="geometry" />
        </mxCell>
        <mxCell id="bP2TtNnTVyMu0gTxCtmb-96" value="&lt;font style=&quot;font-size: 10px;&quot;&gt;\(v_8\)&lt;/font&gt;" style="rounded=0;whiteSpace=wrap;html=1;" vertex="1" parent="1">
          <mxGeometry x="605" y="276" width="20" height="20" as="geometry" />
        </mxCell>
        <mxCell id="bP2TtNnTVyMu0gTxCtmb-97" value="&lt;font style=&quot;font-size: 10px;&quot;&gt;\(v_7\)&lt;/font&gt;" style="rounded=0;whiteSpace=wrap;html=1;" vertex="1" parent="1">
          <mxGeometry x="565" y="256" width="60" height="20" as="geometry" />
        </mxCell>
        <mxCell id="bP2TtNnTVyMu0gTxCtmb-98" value="&lt;font style=&quot;font-size: 10px;&quot;&gt;\(v_3\)&lt;/font&gt;" style="rounded=0;whiteSpace=wrap;html=1;" vertex="1" parent="1">
          <mxGeometry x="625" y="276" width="40" height="20" as="geometry" />
        </mxCell>
        <mxCell id="bP2TtNnTVyMu0gTxCtmb-99" value="&lt;font style=&quot;font-size: 10px;&quot;&gt;\(v_6\)&lt;/font&gt;" style="rounded=0;whiteSpace=wrap;html=1;" vertex="1" parent="1">
          <mxGeometry x="545" y="276" width="60" height="20" as="geometry" />
        </mxCell>
        <mxCell id="bP2TtNnTVyMu0gTxCtmb-100" value="&lt;font style=&quot;font-size: 10px;&quot;&gt;\(v_2\)&lt;/font&gt;" style="rounded=0;whiteSpace=wrap;html=1;" vertex="1" parent="1">
          <mxGeometry x="425" y="276" width="120" height="20" as="geometry" />
        </mxCell>
        <mxCell id="bP2TtNnTVyMu0gTxCtmb-101" value="&lt;font style=&quot;font-size: 10px;&quot;&gt;\(v_5\)&lt;/font&gt;" style="rounded=0;whiteSpace=wrap;html=1;" vertex="1" parent="1">
          <mxGeometry x="425" y="256" width="140" height="20" as="geometry" />
        </mxCell>
        <mxCell id="bP2TtNnTVyMu0gTxCtmb-102" value="14" style="text;html=1;align=center;verticalAlign=middle;resizable=0;points=[];autosize=1;strokeColor=none;fillColor=none;" vertex="1" parent="1">
          <mxGeometry x="665" y="301" width="40" height="30" as="geometry" />
        </mxCell>
        <mxCell id="bP2TtNnTVyMu0gTxCtmb-104" value="" style="endArrow=none;html=1;rounded=0;" edge="1" parent="1">
          <mxGeometry width="50" height="50" relative="1" as="geometry">
            <mxPoint x="405" y="356" as="sourcePoint" />
            <mxPoint x="725" y="356" as="targetPoint" />
          </mxGeometry>
        </mxCell>
        <mxCell id="bP2TtNnTVyMu0gTxCtmb-105" value="&lt;font style=&quot;font-size: 10px;&quot;&gt;\(v_1\)&lt;/font&gt;" style="rounded=0;whiteSpace=wrap;html=1;" vertex="1" parent="1">
          <mxGeometry x="405" y="336" width="20" height="20" as="geometry" />
        </mxCell>
        <mxCell id="bP2TtNnTVyMu0gTxCtmb-106" value="" style="endArrow=classic;html=1;rounded=0;" edge="1" parent="1">
          <mxGeometry width="50" height="50" relative="1" as="geometry">
            <mxPoint x="725" y="356" as="sourcePoint" />
            <mxPoint x="775" y="356" as="targetPoint" />
          </mxGeometry>
        </mxCell>
        <mxCell id="bP2TtNnTVyMu0gTxCtmb-107" value="time" style="text;html=1;align=center;verticalAlign=middle;resizable=0;points=[];autosize=1;strokeColor=none;fillColor=none;" vertex="1" parent="1">
          <mxGeometry x="755" y="361" width="50" height="30" as="geometry" />
        </mxCell>
        <mxCell id="bP2TtNnTVyMu0gTxCtmb-108" value="0" style="text;html=1;align=center;verticalAlign=middle;resizable=0;points=[];autosize=1;strokeColor=none;fillColor=none;" vertex="1" parent="1">
          <mxGeometry x="390" y="354" width="30" height="30" as="geometry" />
        </mxCell>
        <mxCell id="bP2TtNnTVyMu0gTxCtmb-109" value="&lt;font style=&quot;font-size: 10px;&quot;&gt;\(v_4\)&lt;/font&gt;" style="rounded=0;whiteSpace=wrap;html=1;" vertex="1" parent="1">
          <mxGeometry x="645" y="336" width="20" height="20" as="geometry" />
        </mxCell>
        <mxCell id="bP2TtNnTVyMu0gTxCtmb-110" value="&lt;font style=&quot;font-size: 10px;&quot;&gt;\(v_8\)&lt;/font&gt;" style="rounded=0;whiteSpace=wrap;html=1;" vertex="1" parent="1">
          <mxGeometry x="425" y="316" width="20" height="20" as="geometry" />
        </mxCell>
        <mxCell id="bP2TtNnTVyMu0gTxCtmb-111" value="&lt;font style=&quot;font-size: 10px;&quot;&gt;\(v_7\)&lt;/font&gt;" style="rounded=0;whiteSpace=wrap;html=1;" vertex="1" parent="1">
          <mxGeometry x="585" y="336" width="60" height="20" as="geometry" />
        </mxCell>
        <mxCell id="bP2TtNnTVyMu0gTxCtmb-112" value="&lt;font style=&quot;font-size: 10px;&quot;&gt;\(v_3\)&lt;/font&gt;" style="rounded=0;whiteSpace=wrap;html=1;" vertex="1" parent="1">
          <mxGeometry x="545" y="336" width="40" height="20" as="geometry" />
        </mxCell>
        <mxCell id="bP2TtNnTVyMu0gTxCtmb-113" value="&lt;font style=&quot;font-size: 10px;&quot;&gt;\(v_6\)&lt;/font&gt;" style="rounded=0;whiteSpace=wrap;html=1;" vertex="1" parent="1">
          <mxGeometry x="585" y="316" width="60" height="20" as="geometry" />
        </mxCell>
        <mxCell id="bP2TtNnTVyMu0gTxCtmb-114" value="&lt;font style=&quot;font-size: 10px;&quot;&gt;\(v_2\)&lt;/font&gt;" style="rounded=0;whiteSpace=wrap;html=1;" vertex="1" parent="1">
          <mxGeometry x="425" y="336" width="120" height="20" as="geometry" />
        </mxCell>
        <mxCell id="bP2TtNnTVyMu0gTxCtmb-115" value="&lt;font style=&quot;font-size: 10px;&quot;&gt;\(v_5\)&lt;/font&gt;" style="rounded=0;whiteSpace=wrap;html=1;" vertex="1" parent="1">
          <mxGeometry x="445" y="316" width="140" height="20" as="geometry" />
        </mxCell>
        <mxCell id="bP2TtNnTVyMu0gTxCtmb-116" value="13" style="text;html=1;align=center;verticalAlign=middle;resizable=0;points=[];autosize=1;strokeColor=none;fillColor=none;" vertex="1" parent="1">
          <mxGeometry x="645" y="361" width="40" height="30" as="geometry" />
        </mxCell>
      </root>
    </mxGraphModel>
  </diagram>
</mxfile>
